<?xml version="1.0" standalone="no"?>
<!DOCTYPE svg PUBLIC "-//W3C//DTD SVG 20010904//EN"
 "http://www.w3.org/TR/2001/REC-SVG-20010904/DTD/svg10.dtd">
<svg version="1.0" xmlns="http://www.w3.org/2000/svg"
 width="519.000000pt" height="519.000000pt" viewBox="0 0 519.000000 519.000000"
 preserveAspectRatio="xMidYMid meet">
<metadata>
Created by potrace 1.14, written by Peter Selinger 2001-2017
</metadata>
<g transform="translate(0.000000,519.000000) scale(0.100000,-0.100000)"
fill="#000000" stroke="none">
<path d="M2470 4262 c-146 -11 -263 -42 -428 -113 -404 -173 -700 -533 -801
-974 -31 -137 -41 -355 -21 -466 5 -30 12 -70 15 -89 51 -305 257 -646 500
-825 22 -16 42 -32 45 -35 10 -13 122 -81 190 -115 90 -45 207 -92 253 -100
29 -6 41 -16 61 -49 13 -22 62 -104 109 -181 47 -77 116 -191 152 -252 37 -62
70 -115 74 -118 5 -2 17 12 27 32 10 21 42 74 70 118 27 44 67 109 88 145 20
36 69 119 109 184 l72 120 90 36 c114 47 198 88 255 125 236 155 395 333 513
575 141 289 174 610 97 936 -121 514 -564 930 -1095 1029 -78 15 -287 24 -375
17z"/>
</g>
</svg>
